inDegrees=yes
name=ik_lifting_orientations
DataType=double
version=3
OpenSimVersion=4.5-2024-01-10-34fd6af
endheader
time	pelvis_tilt	pelvis_list	pelvis_rotation	pelvis_tx	pelvis_ty	pelvis_tz	hip_flexion_r	hip_adduction_r	hip_rotation_r	knee_angle_r	knee_angle_r_beta	ankle_angle_r	subtalar_angle_r	mtp_angle_r	hip_flexion_l	hip_adduction_l	hip_rotation_l	knee_angle_l	knee_angle_l_beta	ankle_angle_l	subtalar_angle_l	mtp_angle_l	lumbar_extension	lumbar_bending	lumbar_rotation	arm_flex_r	arm_add_r	arm_rot_r	elbow_flex_r	pro_sup_r	wrist_flex_r	wrist_dev_r	arm_flex_l	arm_add_l	arm_rot_l	elbow_flex_l	pro_sup_l	wrist_flex_l	wrist_dev_l
0.02	0.002405030194664739	0.001955970735038436	90.00529377884379	0	0.9400000003403366	0	42.86040616886741	-13.44968522143974	0	55.1352211757943	0.9622911433329098	-6.920105826980659	0	0	42.86040616886741	-13.44968522143974	0	55.1352211757943	0.9622911433329098	-6.920105826980659	0	0	0.005090757174385675	0.00365603690063034	-0.009816370853051874	-0.2663651015539142	-0.06789766907749105	0.005901883927397499	0.5337909563630275	-11.2628551714995	0	0	0	-8.057549867305973	0	75.17094234477315	11.26264494398363	0	0
0.03	0.003976364160147072	-0.02481574109993285	90.01793051737378	0	0.9400000003403366	0	42.89864517037759	-13.26180199056672	0	55.20446428030224	0.9634996634908759	-6.791139871492394	0	0	42.89864517037759	-13.26180199056672	0	55.20446428030224	0.9634996634908759	-6.791139871492394	0	0	0.05832704233222427	0.01861078532976688	-0.01004919150777854	-0.5143006734215773	-0.1274556845813619	-0.03013856368495375	0.98056412995953	-11.11843887155921	0	0	0	-8.123109518234525	0	75.16789240918386	11.118228643411	0	0
0.04	0.0001084654943166895	-0.004135823275852014	89.98770264242599	0	0.9400000003403366	0	42.96949511164932	-12.93692874049795	0	55.33380948675553	0.9657571632151576	-6.573576586072743	0	0	42.96949511164932	-12.93692874049795	0	55.33380948675553	0.9657571632151576	-6.573576586072743	0	0	0.008340393022784496	-0.001914747712308283	0.02365668869990568	-0.2926716720742756	-0.06451815530868922	-0.02059935787334074	0.6117261833061577	-10.8485939694414	0	0	0	-8.246413555675755	0	75.162241065901	10.84838374011361	0	0
0.05	0.007265171703887298	0.005388174209847202	89.94380045787786	0	0.9400000003403366	0	43.05344023484624	-12.56249914544345	0	55.48712394433138	0.9684330052907654	-6.325362480686413	0	0	43.05344023484624	-12.56249914544345	0	55.48712394433138	0.9684330052907654	-6.325362480686413	0	0	0.004954865055182012	0.002333140771888908	-0.002362751519105268	-0.4767893835892536	-0.1060226418831843	0.04598009540372945	0.9693362496307781	-10.52776204822577	0	0	0	-8.393376008055654	0	75.15554506988019	10.52755181749672	0	0
0.06	0.004141341236771213	-0.002435968878462415	89.94193905683755	0	0.9400000003403366	0	43.08985241662887	-12.41067136672273	0	55.55407937114261	0.9696015979406993	-6.22713241985501	0	0	43.08985241662887	-12.41067136672273	0	55.55407937114261	0.9696015979406993	-6.22713241985501	0	0	0.006559111542183456	-0.0003582524014002963	-0.001008374362026577	-0.2959917664369399	-0.06994912728750191	0.05153029541052545	0.6106175276782793	-10.3874312029171	0	0	0	-8.458062900670132	0	75.1526404444441	10.38722097157616	0	0
0.07000000000000001	0.005385618624296123	-0.0005521239127380184	89.9433301151002	0	0.9400000003403366	0	43.14306530366203	-12.19849928034946	0	55.65225298921396	0.9713150508146399	-6.092186382482882	0	0	43.14306530366203	-12.19849928034946	0	55.65225298921396	0.9713150508146399	-6.092186382482882	0	0	-0.002719059195748031	-0.001861202131587299	-0.0007760777895294528	-0.296569606478089	-0.06188855086658346	0.0503104730491097	0.6056863409170141	-10.18127868718665	0	0	0	-8.553458491832686	0	75.14839546623253	10.18106845494774	0	0
0.08	-0.00164439840402682	0.005824350273609894	89.93972828993167	0	0.9400000003403366	0	43.17854342594737	-12.07150202580261	0	55.71838236392878	0.9724692261356986	-6.014456654144085	0	0	43.17854342594737	-12.07150202580261	0	55.71838236392878	0.9724692261356986	-6.014456654144085	0	0	-0.01143646161098172	-0.002727776840775489	2.98835656420574e-05	-0.2295642705727496	-0.05479568581265967	0.05470288183238872	0.4909824348239197	-10.04195095780104	0	0	0	-8.618588630188057	0	75.14556502011902	10.04174072495678	0	0
0.09	-0.0007257074949582032	0.002859733964722233	89.94032188086665	0	0.9400000003403366	0	43.22734016562276	-11.9029124546019	0	55.80960027568359	0.9740612790326137	-5.91261988266988	0	0	43.22734016562276	-11.9029124546019	0	55.80960027568359	0.9740612790326137	-5.91261988266988	0	0	-0.005827444168349969	-0.002008905487760762	-7.17240351108584e-05	-0.2329163808734923	-0.05841772999714234	0.02460786209233227	0.4858934636520238	-9.849472945354425	0	0	0	-8.70885587587224	0	75.14167191812061	9.849262711674543	0	0
0.1	-0.001956880899913935	-0.0008524786380145687	89.93675865215195	0	0.9400000003403366	0	43.32302662437718	-11.6250335471587	0	55.99142191514512	0.9772346652925914	-5.754885429279223	0	0	43.32302662437718	-11.6250335471587	0	55.99142191514512	0.9772346652925914	-5.754885429279223	0	0	0.0003293847244406072	-0.0003701778416289614	-0.0005033379301521777	-0.2409157523619037	-0.06299947776596085	0.03023107441694612	0.4972123756215419	-9.46356070006428	0	0	0	-8.892797188338955	0	75.13403699487698	9.463350464715125	0	0
0.11	-0.0008965170349001258	0.0007578432033925542	89.94259805780773	0	0.9400000003403366	0	43.36760873801465	-11.49366153225541	0	56.07611839024015	0.978712897647833	-5.679551855810015	0	0	43.36760873801465	-11.49366153225541	0	56.07611839024015	0.978712897647833	-5.679551855810015	0	0	-0.003428002984147031	-0.0009081216464834039	-0.001117786591943585	-0.2293897321234949	-0.08857091936785583	0.02652613555494606	0.4787161042870358	-9.283795946002114	0	0	0	-8.978479249217388	0	75.13047976640222	9.283585709875284	0	0
0.12	-0.01489168851046638	0.05886057727506167	89.92495749057362	0	0.9400000003403366	0	43.43789913632631	-11.29698639758312	0	56.2102970316341	0.9810547567260103	-5.568957301745538	0	0	43.43789913632631	-11.29698639758312	0	56.2102970316341	0.9810547567260103	-5.568957301745538	0	0	-0.01562786492006082	-0.003821858394052513	0.006967565957573906	-0.2774913338872085	-0.1057917425895759	0.01539880761396524	0.4872354167517525	-8.99851849584895	0	0	0	-9.115079722953345	0	75.12487111670085	8.998308258489084	0	0
0.13	-0.03445551322125073	0.06699610662637069	89.94824909706939	0	0.9400000003403366	0	43.54157603593303	-11.06102992647383	0	56.41211261820717	0.9845771031935541	-5.445842862017601	0	0	43.54157603593303	-11.06102992647383	0	56.41211261820717	0.9845771031935541	-5.445842862017601	0	0	-0.02552769824964435	-0.01219350491899843	-0.003356257902047481	-0.331874553022554	-0.1357823017406222	-0.01445479666570484	0.6027250717120964	-8.566367089654612	0	0	0	-9.325973600741458	0	75.11659757194725	8.566156850433845	0	0
0.14	-0.01177072697277176	0.05885937837256205	89.94053327867682	0	0.9400000003403366	0	43.60354759982911	-10.92152656382466	0	56.53298727099934	0.9866867638669822	-5.373056881575118	0	0	43.60354759982911	-10.92152656382466	0	56.53298727099934	0.9866867638669822	-5.373056881575118	0	0	-0.0004580048301016708	-0.0006602152008572133	-0.000428862896796531	-0.2932737196549473	-0.1087235487735583	-0.03497367967883835	0.4833995331218129	-8.307359363400058	0	0	0	-9.452616702547846	0	75.11165214983417	8.307149123064198	0	0
0.15	-0.01094288661907166	0.05888300028458876	89.94027366392027	0	0.9400000003403366	0	43.70658334266994	-10.73240261214419	0	56.7378792057663	0.9902628027394473	-5.281475118190344	0	0	43.70658334266994	-10.73240261214419	0	56.7378792057663	0.9902628027394473	-5.281475118190344	0	0	-0.0006752122945021491	0.0007628311635504777	-0.000481997135835018	-0.2928026924084326	-0.1096048311656109	-0.03443569353711027	0.483138834635837	-7.865138195889959	0	0	0	-9.672879409256863	0	75.1034290335521	7.864927953656238	0	0
0.16	-0.01073341056786881	0.05908356374776731	89.93892682956897	0	0.9400000003403366	0	43.78037018540762	-10.61883243865998	0	56.88721701042762	0.9928692391284873	-5.229707444798118	0	0	43.78037018540762	-10.61883243865998	0	56.88721701042762	0.9928692391284873	-5.229707444798118	0	0	-0.001262274838206714	0.0009556690405144269	0.0001902043365790705	-0.2919880931930285	-0.1100685512877653	-0.03273483305022511	0.4829467541272887	-7.540684488922285	0	0	0	-9.837207838646028	0	75.09753985668979	7.540474245299539	0	0
0.17	-0.01263225886158194	0.05842156895933623	89.93779342575692	0	0.9400000003403366	0	43.83928244082212	-10.5395182163664	0	57.00809813699759	0.9949790127906534	-5.195141958860605	0	0	43.83928244082212	-10.5395182163664	0	57.00809813699759	0.9949790127906534	-5.195141958860605	0	0	-0.0007342426206607863	-3.889668687886234e-05	0.001303806148348439	-0.2921125543297733	-0.1120329075694444	-0.03267523763566119	0.4838728110053145	-7.276688113655287	0	0	0	-9.972663473024435	0	75.09283767211645	7.276477868904268	0	0
0.18	-0.009447993996250787	0.06695735071497474	89.94419134204459	0	0.9400000003403366	0	43.89614639498654	-10.4689997003715	0	57.12587596324205	0.9970346236444609	-5.165126764590421	0	0	43.89614639498654	-10.4689997003715	0	57.12587596324205	0.9970346236444609	-5.165126764590421	0	0	-0.01725830566170358	-0.00346407330800396	-0.0003082344195582822	-0.5177264630504284	-0.1615047768709645	-0.04685340115166265	0.969872199072002	-7.01856267575213	0	0	0	-10.10629141771591	0	75.08829886878497	7.018352429899095	0	0
0.19	0.0003903849173016079	0.04837734040537161	89.94863708464746	0	0.9400000003403366	0	43.92084259050813	-10.43526473773158	0	57.1767278211865	0.9979221559963481	-5.15015979392387	0	0	43.92084259050813	-10.43526473773158	0	57.1767278211865	0.9979221559963481	-5.15015979392387	0	0	0.02630874191832418	0.01286626761035939	-0.002447208119744049	-0.3251434462827251	-0.1024651314615171	-0.04730534911518271	0.4960316059939296	-6.907658408418451	0	0	0	-10.1633031624634	0	75.08632770473568	6.907448162091407	0	0
0.2	-0.008910389216640906	0.05010955999621156	89.93593741744107	0	0.9400000003403366	0	43.94673304220139	-10.40308637101001	0	57.23040129699858	0.9988589348702583	-5.136381065703122	0	0	43.94673304220139	-10.40308637101001	0	57.23040129699858	0.9988589348702583	-5.136381065703122	0	0	0.02396631066019613	0.004754738062744923	0.003934174966438928	-0.3658388554406193	-0.1132188013956302	-0.007906159604952929	0.58989713721624	-6.789964644737684	0	0	0	-10.22429858323543	0	75.08426116753634	6.789754397908179	0	0
0.21	-0.005540830015572474	0.06305679874380636	89.91474871222144	0	0.9400000003403366	0	43.96948405909889	-10.37572822062	0	57.2777430006188	0.9996852034719345	-5.124813208712133	0	0	43.96948405909889	-10.37572822062	0	57.2777430006188	0.9996852034719345	-5.124813208712133	0	0	-0.001010298061064681	-0.001651770189762624	0.008386837971612819	-0.3009395805915193	-0.09719491891960129	0.02314097961625812	0.4910593781862391	-6.686102873527341	0	0	0	-10.27827619474478	0	75.08244520285002	6.685892626254498	0	0
0.22	-0.01030146860214012	0.05773243488434498	89.94371336628134	0	0.9400000003403366	0	44.00198331746903	-10.3405969293863	0	57.34602999731653	1.000877036400609	-5.110517531378418	0	0	44.00198331746903	-10.3405969293863	0	57.34602999731653	1.000877036400609	-5.110517531378418	0	0	-0.003040174547334926	-9.185694569538914e-05	-0.002114507989161079	-0.2876852108927996	-0.1026442602243866	-0.00692149445229734	0.4869965347050638	-6.535593794264585	0	0	0	-10.35725232735853	0	75.07985107512508	6.535383546350088	0	0
0.23	-0.01430646724090424	0.03687511189296146	89.94166373036064	0	0.9400000003403366	0	44.02566663749851	-10.31581168006477	0	57.39595151649774	1.001748331277918	-5.10055242108279	0	0	44.02566663749851	-10.31581168006477	0	57.39595151649774	1.001748331277918	-5.10055242108279	0	0	0.05405142660389661	0.006067491048517231	-0.00013488765384101	-0.3766368758331274	-0.128907494642226	-0.003677130969401137	0.6430120578036685	-6.425430438244899	0	0	0	-10.41522715447731	0	75.07796063417926	6.425220189860886	0	0
0.24	-0.01775044929112915	0.06326305161332861	89.9405859002248	0	0.9400000003403366	0	44.06540677366461	-10.27586803972984	0	57.48003296190269	1.00321582934007	-5.084742565216918	0	0	44.06540677366461	-10.27586803972984	0	57.48003296190269	1.00321582934007	-5.084742565216918	0	0	0.0004512424258659527	-0.0003578771044341657	7.923098105433289e-05	-0.3342310245818733	-0.1584078429648068	-0.002882740012198793	0.6332515036486079	-6.239633079387078	0	0	0	-10.51332882842311	0	75.07478848969953	6.239422830211455	0	0
